<svg xmlns:xlink="http://www.w3.org/1999/xlink" xmlns="http://www.w3.org/2000/svg" width="1000.0" height="955.855303495">
  <desc>Created by CircuitLab https://www.circuitlab.com/</desc><g transform="matrix(1.22624156959,0,0,1.22624156959,-2358.06253832,-1160.63764562)">
    <rect x="2362.5" y="1162.5" width="325" height="125" r="0" rx="0" ry="0" fill="#ffffff" stroke="#000000" stroke-width="2"/>
    <text fill="#000000" x="2525" y="1201" text-anchor="middle" text-decoration="none" style="font-family: Arial; font-size: 16px; font-weight: bold;">Adafruit Bi-Directional</text>
    <text fill="#000000" x="2525" y="1225" text-anchor="middle" text-decoration="none" style="font-family: Arial; font-size: 16px; font-weight: bold;">I2C Level Shifter</text>
    <text fill="#000000" x="2525" y="1249" text-anchor="middle" text-decoration="none" style="font-family: Arial; font-size: 16px; font-weight: bold;">10K pullups, BS106 MOSFETs</text>
    <path fill="none" stroke="#000000" d="M2650,1150L2650,1162.5" stroke-width="2"/>
    <text fill="#000000" x="2650" y="1180" text-anchor="middle" text-decoration="none" style="font-family: Arial; font-size: 12px;">LV</text>
    <text fill="#000000" x="2642" y="1158" text-anchor="middle" style="font-family: Arial; font-size: 12px;"/>
    <path fill="none" stroke="#000000" d="M2600,1150L2600,1162.5" stroke-width="2"/>
    <text fill="#000000" x="2600" y="1180" text-anchor="middle" text-decoration="none" style="font-family: Arial; font-size: 12px;">A1</text>
    <text fill="#000000" x="2592" y="1158" text-anchor="middle" style="font-family: Arial; font-size: 12px;"/>
    <path fill="none" stroke="#000000" d="M2550,1150L2550,1162.5" stroke-width="2"/>
    <text fill="#000000" x="2550" y="1180" text-anchor="middle" text-decoration="none" style="font-family: Arial; font-size: 12px;">A2</text>
    <text fill="#000000" x="2542" y="1158" text-anchor="middle" style="font-family: Arial; font-size: 12px;"/>
    <path fill="none" stroke="#000000" d="M2500,1150L2500,1162.5" stroke-width="2"/>
    <text fill="#000000" x="2500" y="1180" text-anchor="middle" text-decoration="none" style="font-family: Arial; font-size: 12px;">A3</text>
    <text fill="#000000" x="2492" y="1158" text-anchor="middle" style="font-family: Arial; font-size: 12px;"/>
    <path fill="none" stroke="#000000" d="M2450,1150L2450,1162.5" stroke-width="2"/>
    <text fill="#000000" x="2450" y="1180" text-anchor="middle" text-decoration="none" style="font-family: Arial; font-size: 12px;">A4</text>
    <text fill="#000000" x="2442" y="1158" text-anchor="middle" style="font-family: Arial; font-size: 12px;"/>
    <path fill="none" stroke="#000000" d="M2650,1300L2650,1287.5" stroke-width="2"/>
    <text fill="#000000" x="2650" y="1280" text-anchor="middle" text-decoration="none" style="font-family: Arial; font-size: 12px;">HV</text>
    <text fill="#000000" x="2642" y="1300" text-anchor="middle" style="font-family: Arial; font-size: 12px;"/>
    <path fill="none" stroke="#000000" d="M2400,1150L2400,1162.5" stroke-width="2"/>
    <text fill="#000000" x="2400" y="1180" text-anchor="middle" text-decoration="none" style="font-family: Arial; font-size: 12px;">GND</text>
    <text fill="#000000" x="2392" y="1158" text-anchor="middle" style="font-family: Arial; font-size: 12px;"/>
    <path fill="none" stroke="#000000" d="M2400,1300L2400,1287.5" stroke-width="2"/>
    <text fill="#000000" x="2400" y="1280" text-anchor="middle" text-decoration="none" style="font-family: Arial; font-size: 12px;">GND</text>
    <text fill="#000000" x="2392" y="1300" text-anchor="middle" style="font-family: Arial; font-size: 12px;"/>
    <path fill="none" stroke="#000000" d="M2600,1300L2600,1287.5" stroke-width="2"/>
    <text fill="#000000" x="2600" y="1280" text-anchor="middle" text-decoration="none" style="font-family: Arial; font-size: 12px;">B1</text>
    <text fill="#000000" x="2592" y="1300" text-anchor="middle" style="font-family: Arial; font-size: 12px;"/>
    <path fill="none" stroke="#000000" d="M2550,1300L2550,1287.5" stroke-width="2"/>
    <text fill="#000000" x="2550" y="1280" text-anchor="middle" text-decoration="none" style="font-family: Arial; font-size: 12px;">B2</text>
    <text fill="#000000" x="2542" y="1300" text-anchor="middle" style="font-family: Arial; font-size: 12px;"/>
    <path fill="none" stroke="#000000" d="M2500,1300L2500,1287.5" stroke-width="2"/>
    <text fill="#000000" x="2500" y="1280" text-anchor="middle" text-decoration="none" style="font-family: Arial; font-size: 12px;">B3</text>
    <text fill="#000000" x="2492" y="1300" text-anchor="middle" style="font-family: Arial; font-size: 12px;"/>
    <path fill="none" stroke="#000000" d="M2450,1300L2450,1287.5" stroke-width="2"/>
    <text fill="#000000" x="2450" y="1280" text-anchor="middle" text-decoration="none" style="font-family: Arial; font-size: 12px;">B4</text>
    <text fill="#000000" x="2442" y="1300" text-anchor="middle" style="font-family: Arial; font-size: 12px;"/>
    <rect x="2512.5" y="1012.5" width="125" height="75" r="0" rx="0" ry="0" fill="#ffffff" stroke="#000000" stroke-width="2"/>
    <text fill="#000000" x="2575" y="1026" text-anchor="middle" text-decoration="none" style="font-family: Arial; font-size: 16px; font-weight: bold;"/>
    <text fill="#000000" x="2575" y="1050" text-anchor="middle" text-decoration="none" style="font-family: Arial; font-size: 16px; font-weight: bold;">MLX90620</text>
    <text fill="#000000" x="2575" y="1074" text-anchor="middle" text-decoration="none" style="font-family: Arial; font-size: 16px; font-weight: bold;"/>
    <path fill="none" stroke="#000000" d="M2550,1000L2550,1012.5" stroke-width="2"/>
    <text fill="#000000" x="2550" y="1030" text-anchor="middle" text-decoration="none" style="font-family: Arial; font-size: 12px;">VSS</text>
    <text fill="#000000" x="2542" y="1008" text-anchor="middle" style="font-family: Arial; font-size: 12px;"/>
    <path fill="none" stroke="#000000" d="M2600,1100L2600,1087.5" stroke-width="2"/>
    <text fill="#000000" x="2600" y="1080" text-anchor="middle" text-decoration="none" style="font-family: Arial; font-size: 12px;">SCL</text>
    <text fill="#000000" x="2592" y="1100" text-anchor="middle" style="font-family: Arial; font-size: 12px;"/>
    <path fill="none" stroke="#000000" d="M2550,1100L2550,1087.5" stroke-width="2"/>
    <text fill="#000000" x="2550" y="1080" text-anchor="middle" text-decoration="none" style="font-family: Arial; font-size: 12px;">SDA</text>
    <text fill="#000000" x="2542" y="1100" text-anchor="middle" style="font-family: Arial; font-size: 12px;"/>
    <path fill="none" stroke="#000000" d="M2600,1000L2600,1012.5" stroke-width="2"/>
    <text fill="#000000" x="2600" y="1030" text-anchor="middle" text-decoration="none" style="font-family: Arial; font-size: 12px;">VDD</text>
    <text fill="#000000" x="2592" y="1008" text-anchor="middle" style="font-family: Arial; font-size: 12px;"/>
    <rect x="2462.5" y="1387.5" width="275" height="125" r="0" rx="0" ry="0" fill="#ffffff" stroke="#000000" stroke-width="2"/>
    <text fill="#000000" x="2600" y="1426" text-anchor="middle" text-decoration="none" style="font-family: Arial; font-size: 16px; font-weight: bold;"/>
    <text fill="#000000" x="2600" y="1450" text-anchor="middle" text-decoration="none" style="font-family: Arial; font-size: 16px; font-weight: bold;">Arduino</text>
    <text fill="#000000" x="2600" y="1474" text-anchor="middle" text-decoration="none" style="font-family: Arial; font-size: 16px; font-weight: bold;">(abbreviated)</text>
    <path fill="none" stroke="#000000" d="M2700,1375L2700,1387.5" stroke-width="2"/>
    <text fill="#000000" x="2700" y="1405" text-anchor="middle" text-decoration="none" style="font-family: Arial; font-size: 12px;">5V</text>
    <text fill="#000000" x="2692" y="1383" text-anchor="middle" style="font-family: Arial; font-size: 12px;"/>
    <path fill="none" stroke="#000000" d="M2500,1525L2500,1512.5" stroke-width="2"/>
    <text fill="#000000" x="2500" y="1505" text-anchor="middle" text-decoration="none" style="font-family: Arial; font-size: 12px;">GND</text>
    <text fill="#000000" x="2492" y="1525" text-anchor="middle" style="font-family: Arial; font-size: 12px;"/>
    <path fill="none" stroke="#000000" d="M2500,1375L2500,1387.5" stroke-width="2"/>
    <text fill="#000000" x="2500" y="1405" text-anchor="middle" text-decoration="none" style="font-family: Arial; font-size: 12px;">A4 (SDA)</text>
    <text fill="#000000" x="2492" y="1383" text-anchor="middle" style="font-family: Arial; font-size: 12px;"/>
    <path fill="none" stroke="#000000" d="M2600,1375L2600,1387.5" stroke-width="2"/>
    <text fill="#000000" x="2600" y="1405" text-anchor="middle" text-decoration="none" style="font-family: Arial; font-size: 12px;">A5 (SCL)</text>
    <text fill="#000000" x="2592" y="1383" text-anchor="middle" style="font-family: Arial; font-size: 12px;"/>
    <path fill="none" stroke="#000000" d="M2700,1525L2700,1512.5" stroke-width="2"/>
    <text fill="#000000" x="2700" y="1505" text-anchor="middle" text-decoration="none" style="font-family: Arial; font-size: 12px;">3.3V</text>
    <text fill="#000000" x="2692" y="1525" text-anchor="middle" style="font-family: Arial; font-size: 12px;"/>
    <path fill="none" stroke="#000000" d="M2550,1525L2550,1512.5" stroke-width="2"/>
    <text fill="#000000" x="2550" y="1505" text-anchor="middle" text-decoration="none" style="font-family: Arial; font-size: 12px;">D2</text>
    <text fill="#000000" x="2542" y="1525" text-anchor="middle" text-decoration="none" style="font-family: Arial; font-size: 12px;"/>
    <path fill="none" stroke="#000000" d="M2600,1525L2600,1512.5" stroke-width="2"/>
    <text fill="#000000" x="2600" y="1505" text-anchor="middle" text-decoration="none" style="font-family: Arial; font-size: 12px;">5V</text>
    <text fill="#000000" x="2592" y="1525" text-anchor="middle" text-decoration="none" style="font-family: Arial; font-size: 12px;"/>
    <path fill="#000000" stroke="none" d="M10.93749,25L25,50L39.06251,25" transform="matrix(-1,0,0,-1,1975,1425)"/>
    <path style="stroke-linecap: round; stroke-miterlimit: 6;" fill="none" stroke="#000000" d="M25,25L25,0" stroke-width="2" stroke-linecap="round" stroke-miterlimit="6" transform="matrix(-1,0,0,-1,1975,1425)"/>
    <path style="stroke-linecap: round; stroke-miterlimit: 6;" fill="none" stroke="#000000" d="M25,50L25,75" stroke-width="2" stroke-linecap="round" stroke-miterlimit="6" transform="matrix(-1,0,0,-1,1975,1425)"/>
    <path style="stroke-linecap: round; stroke-miterlimit: 6;" fill="none" stroke="#000000" d="M10.93749,50L39.06251,50" stroke-width="2" stroke-linecap="round" stroke-miterlimit="6" transform="matrix(-1,0,0,-1,1975,1425)"/>
    <text style="font-family: Arial; font-size: 16px; font-weight: bold; text-anchor: start;" x="0" y="0" text-anchor="start" stroke="none" fill="#000000" transform="translate(1968.75,1387.5)">
      <tspan dy="-2.3999999999999995">D1</tspan>
      <tspan dy="19.2" x="0">1N4148</tspan>
    </text>
    <path style="stroke-linecap: round; stroke-miterlimit: 6;" fill="none" stroke="#000000" d="M25,21.87499L25,0" stroke-width="2" stroke-linecap="round" stroke-miterlimit="6" transform="translate(2125,1325)"/>
    <path style="stroke-linecap: round; stroke-miterlimit: 6;" fill="none" stroke="#000000" d="M25,78.12502L25,100" stroke-width="2" stroke-linecap="round" stroke-miterlimit="6" transform="translate(2125,1325)"/>
    <path style="stroke-linecap: round; stroke-miterlimit: 6;" fill="none" stroke="#000000" d="M25,21.87499L14.062504,26.56249L35.937495,35.93748L14.062504,45.31248L35.937495,54.68752L14.062504,64.06252L35.937495,73.43752L25,78.12502" stroke-width="2" stroke-linecap="round" stroke-miterlimit="6" transform="translate(2125,1325)"/>
    <text style="font-family: Arial; font-size: 16px; font-weight: bold; text-anchor: start;" x="0" y="0" text-anchor="start" stroke="none" fill="#000000" transform="translate(2168.75,1375)">
      <tspan dy="-2.3999999999999995">R2</tspan>
      <tspan dy="19.2" x="0">1.5 kΩ</tspan>
    </text>
    <path style="stroke-linecap: round; stroke-miterlimit: 6;" fill="none" stroke="#000000" d="M25,21.87499L25,0" stroke-width="2" stroke-linecap="round" stroke-miterlimit="6" transform="translate(2025,1325)"/>
    <path style="stroke-linecap: round; stroke-miterlimit: 6;" fill="none" stroke="#000000" d="M25,78.12502L25,100" stroke-width="2" stroke-linecap="round" stroke-miterlimit="6" transform="translate(2025,1325)"/>
    <path style="stroke-linecap: round; stroke-miterlimit: 6;" fill="none" stroke="#000000" d="M25,21.87499L14.062504,26.56249L35.937495,35.93748L14.062504,45.31248L35.937495,54.68752L14.062504,64.06252L35.937495,73.43752L25,78.12502" stroke-width="2" stroke-linecap="round" stroke-miterlimit="6" transform="translate(2025,1325)"/>
    <text style="font-family: Arial; font-size: 16px; font-weight: bold; text-anchor: start;" x="0" y="0" text-anchor="start" stroke="none" fill="#000000" transform="translate(2068.75,1375)">
      <tspan dy="-2.3999999999999995">R1</tspan>
      <tspan dy="19.2" x="0">1.5 kΩ</tspan>
    </text>
    <path style="stroke-linecap: round;" fill="none" stroke="#ff0000" d="M 1925 950 L 2725 950" stroke-width="4" stroke-linecap="round" class="cl_wire"/>
    <path style="stroke-linecap: round;" fill="none" stroke="#000000" d="M 2150 1275 L 2150 1325" stroke-width="2" stroke-linecap="round" class="cl_wire"/>
    <path style="stroke-linecap: round;" fill="none" stroke="#000000" d="M 2150 1425 L 2150 1550" stroke-width="2" stroke-linecap="round" class="cl_wire"/>
    <path style="stroke-linecap: round;" fill="none" stroke="#000000" d="M 2325 1125 L 2400 1125" stroke-width="2" stroke-linecap="round" class="cl_wire"/>
    <path style="stroke-linecap: round;" fill="none" stroke="#000000" d="M 2325 1125 L 2325 1550" stroke-width="2" stroke-linecap="round" class="cl_wire"/>
    <path style="stroke-linecap: round;" fill="none" stroke="#000000" d="M 1950 1275 L 2150 1275" stroke-width="2" stroke-linecap="round" class="cl_wire"/>
    <path style="stroke-linecap: round;" fill="none" stroke="#000000" d="M 1950 1325 L 2050 1325" stroke-width="2" stroke-linecap="round" class="cl_wire"/>
    <path style="stroke-linecap: round;" fill="none" stroke="#000000" d="M 1950 950 L 1950 1350" stroke-width="2" stroke-linecap="round" class="cl_wire"/>
    <path style="stroke-linecap: round;" fill="none" stroke="#0000ff" d="M 2025 1550 L 2525 1550" stroke-width="4" stroke-linecap="round" class="cl_wire"/>
    <path style="stroke-linecap: round;" fill="none" stroke="#000000" d="M 2700 950 L 2700 1125" stroke-width="2" stroke-linecap="round" class="cl_wire"/>
    <path style="stroke-linecap: round;" fill="none" stroke="#000000" d="M 2250 975 L 2550 975" stroke-width="2" stroke-linecap="round" class="cl_wire"/>
    <path style="stroke-linecap: round;" fill="none" stroke="#000000" d="M 2250 975 L 2250 1550" stroke-width="2" stroke-linecap="round" class="cl_wire"/>
    <path style="stroke-linecap: round;" fill="none" stroke="#000000" d="M 2550 975 L 2550 1000" stroke-width="2" stroke-linecap="round" class="cl_wire"/>
    <path style="stroke-linecap: round;" fill="none" stroke="#000000" d="M 2050 1425 L 2050 1550" stroke-width="2" stroke-linecap="round" class="cl_wire"/>
    <path style="stroke-linecap: round;" fill="none" stroke="#000000" d="M 2650 1125 L 2700 1125" stroke-width="2" stroke-linecap="round" class="cl_wire"/>
    <path style="stroke-linecap: round;" fill="none" stroke="#000000" d="M 2650 1125 L 2650 1150" stroke-width="2" stroke-linecap="round" class="cl_wire"/>
    <path style="stroke-linecap: round;" fill="none" stroke="#000000" d="M 2600 1100 L 2600 1150" stroke-width="2" stroke-linecap="round" class="cl_wire"/>
    <path style="stroke-linecap: round;" fill="none" stroke="#000000" d="M 2550 1100 L 2550 1150" stroke-width="2" stroke-linecap="round" class="cl_wire"/>
    <path style="stroke-linecap: round;" fill="none" stroke="#000000" d="M 2600 950 L 2600 1000" stroke-width="2" stroke-linecap="round" class="cl_wire"/>
    <path style="stroke-linecap: round;" fill="none" stroke="#000000" d="M 2400 1300 L 2400 1550" stroke-width="2" stroke-linecap="round" class="cl_wire"/>
    <path style="stroke-linecap: round;" fill="none" stroke="#000000" d="M 2400 1125 L 2400 1150" stroke-width="2" stroke-linecap="round" class="cl_wire"/>
    <path style="stroke-linecap: round;" fill="none" stroke="#000000" d="M 2700 1350 L 2700 1375" stroke-width="2" stroke-linecap="round" class="cl_wire"/>
    <path style="stroke-linecap: round;" fill="none" stroke="#000000" d="M 2650 1350 L 2700 1350" stroke-width="2" stroke-linecap="round" class="cl_wire"/>
    <path style="stroke-linecap: round;" fill="none" stroke="#000000" d="M 2600 1300 L 2600 1375" stroke-width="2" stroke-linecap="round" class="cl_wire"/>
    <path style="stroke-linecap: round;" fill="none" stroke="#000000" d="M 2500 1350 L 2550 1350" stroke-width="2" stroke-linecap="round" class="cl_wire"/>
    <path style="stroke-linecap: round;" fill="none" stroke="#000000" d="M 2550 1300 L 2550 1350" stroke-width="2" stroke-linecap="round" class="cl_wire"/>
    <path style="stroke-linecap: round;" fill="none" stroke="#000000" d="M 2500 1350 L 2500 1375" stroke-width="2" stroke-linecap="round" class="cl_wire"/>
    <path style="stroke-linecap: round;" fill="none" stroke="#000000" d="M 2650 1300 L 2650 1350" stroke-width="2" stroke-linecap="round" class="cl_wire"/>
    <path style="stroke-linecap: round;" fill="none" stroke="#000000" d="M 2500 1525 L 2500 1550" stroke-width="2" stroke-linecap="round" class="cl_wire"/>
    <path style="stroke-linecap: round;" fill="none" stroke="#000000" d="M 2700 1525 L 2700 1725" stroke-width="2" stroke-linecap="round" class="cl_wire"/>
    <path style="stroke-linecap: round;" fill="none" stroke="#000000" d="M 1950 1725 L 2700 1725" stroke-width="2" stroke-linecap="round" class="cl_wire"/>
    <path style="stroke-linecap: round;" fill="none" stroke="#000000" d="M 1950 1425 L 1950 1725" stroke-width="2" stroke-linecap="round" class="cl_wire"/>
    <rect x="2512.5" y="1612.5" width="125" height="75" r="0" rx="0" ry="0" fill="#ffffff" stroke="#000000" stroke-width="2"/>
    <text fill="#000000" x="2575" y="1626" text-anchor="middle" text-decoration="none" style="font-family: Arial; font-size: 16px; font-weight: bold;"/>
    <text fill="#000000" x="2575" y="1650" text-anchor="middle" text-decoration="none" style="font-family: Arial; font-size: 16px; font-weight: bold;">PIR</text>
    <text fill="#000000" x="2575" y="1674" text-anchor="middle" text-decoration="none" style="font-family: Arial; font-size: 16px; font-weight: bold;"/>
    <path fill="none" stroke="#000000" d="M2550,1600L2550,1612.5" stroke-width="2"/>
    <text fill="#000000" x="2550" y="1630" text-anchor="middle" text-decoration="none" style="font-family: Arial; font-size: 12px;">OUT</text>
    <text fill="#000000" x="2542" y="1608" text-anchor="middle" style="font-family: Arial; font-size: 12px;"/>
    <path fill="none" stroke="#000000" d="M2600,1600L2600,1612.5" stroke-width="2"/>
    <text fill="#000000" x="2600" y="1630" text-anchor="middle" text-decoration="none" style="font-family: Arial; font-size: 12px;">5V</text>
    <text fill="#000000" x="2592" y="1608" text-anchor="middle" text-decoration="none" style="font-family: Arial; font-size: 12px;"/>
    <path fill="none" stroke="#000000" d="M2500,1650L2512.5,1650" stroke-width="2"/>
    <text fill="#000000" x="2520" y="1654" text-anchor="start" text-decoration="none" style="font-family: Arial; font-size: 12px;">GND</text>
    <text fill="#000000" x="2505" y="1647" text-anchor="middle" text-decoration="none" style="font-family: Arial; font-size: 12px;"/>
    <path style="stroke-linecap: round;" fill="none" stroke="#000000" d="M 2450 1650 L 2500 1650" stroke-width="2" stroke-linecap="round" class="cl_wire"/>
    <path style="stroke-linecap: round;" fill="none" stroke="#000000" d="M 2450 1550 L 2450 1650" stroke-width="2" stroke-linecap="round" class="cl_wire"/>
    <path style="stroke-linecap: round;" fill="none" stroke="#000000" d="M 2550 1525 L 2550 1600" stroke-width="2" stroke-linecap="round" class="cl_wire"/>
    <path style="stroke-linecap: round;" fill="none" stroke="#000000" d="M 2600 1525 L 2600 1600" stroke-width="2" stroke-linecap="round" class="cl_wire"/>
    <circle cx="2150" cy="1550" r="3" fill="#000000" stroke="#000000"/>
    <circle cx="2325" cy="1550" r="3" fill="#000000" stroke="#000000"/>
    <circle cx="1950" cy="1275" r="3" fill="#000000" stroke="#000000"/>
    <circle cx="1950" cy="1325" r="3" fill="#000000" stroke="#000000"/>
    <circle cx="1950" cy="950" r="3" fill="#000000" stroke="#000000"/>
    <circle cx="2700" cy="950" r="3" fill="#000000" stroke="#000000"/>
    <circle cx="2250" cy="1550" r="3" fill="#000000" stroke="#000000"/>
    <circle cx="2050" cy="1550" r="3" fill="#000000" stroke="#000000"/>
    <circle cx="2600" cy="950" r="3" fill="#000000" stroke="#000000"/>
    <circle cx="2400" cy="1550" r="3" fill="#000000" stroke="#000000"/>
    <circle cx="2500" cy="1550" r="3" fill="#000000" stroke="#000000"/>
    <circle cx="2450" cy="1550" r="3" fill="#000000" stroke="#000000"/>
  </g>
</svg>
